<svg width="395" height="416" viewBox="0 0 395 416" fill="none" xmlns="http://www.w3.org/2000/svg">
<path d="M225.565 406.023C225.222 406.023 224.879 405.932 224.571 405.754L57.8445 307.676C57.3716 307.399 57.0389 306.937 56.9233 306.401C56.8077 305.865 56.9198 305.308 57.2351 304.86L191.52 114.031C192.143 113.145 193.366 112.932 194.252 113.555C195.138 114.178 195.352 115.401 194.728 116.287L61.6719 305.376L223.78 400.737L229.045 303.314C229.104 302.232 230.015 301.412 231.108 301.461C232.19 301.52 233.017 302.445 232.961 303.524L227.521 404.166C227.483 404.849 227.094 405.465 226.488 405.788C226.201 405.945 225.882 406.022 225.563 406.022L225.565 406.023ZM232.595 276.007C232.56 276.007 232.525 276.007 232.487 276.003C231.404 275.944 230.578 275.019 230.634 273.94L242.851 47.9172L211.66 92.2395C211.037 93.1256 209.814 93.3393 208.928 92.7158C208.042 92.0924 207.828 90.87 208.452 89.9838L243.576 40.0753C244.08 39.3608 244.995 39.0631 245.821 39.3503C246.648 39.6375 247.184 40.4361 247.138 41.3082L234.55 274.155C234.494 275.198 233.629 276.007 232.595 276.007L232.595 276.007Z" fill="white"/>
<path d="M382.482 307.946H272.524C271.442 307.946 270.563 307.067 270.563 305.984C270.563 304.902 271.442 304.023 272.524 304.023H379.389L303.018 141.735L84.5004 224.621C83.4847 225.007 82.3534 224.495 81.9716 223.483C81.5863 222.471 82.0977 221.336 83.1099 220.954L303.331 137.424C304.287 137.064 305.363 137.494 305.801 138.423L384.259 305.149C384.546 305.755 384.501 306.469 384.14 307.037C383.783 307.604 383.159 307.947 382.487 307.947L382.482 307.946ZM243.105 307.946H58.8396C58.1846 307.946 57.5717 307.617 57.2074 307.074L17.9783 248.23C17.6455 247.733 17.5615 247.113 17.7436 246.542C17.9257 245.974 18.3565 245.519 18.917 245.305L55.6032 231.389C56.6189 231.004 57.7502 231.515 58.132 232.527C58.5173 233.54 58.006 234.674 56.9937 235.056L22.6084 248.096L59.89 304.022H243.106C244.188 304.022 245.067 304.902 245.067 305.984C245.064 307.066 244.185 307.945 243.102 307.945L243.105 307.946Z" fill="white"/>
<path d="M19.6098 249.107C19.1475 249.107 18.6887 248.942 18.3244 248.627C17.778 248.157 17.5363 247.422 17.6939 246.718L56.9231 70.182C57.0387 69.6566 57.3679 69.2012 57.8302 68.9246C58.2926 68.648 58.8495 68.5744 59.3643 68.718L148.296 93.6184C149.34 93.9091 149.949 94.9914 149.655 96.0352C149.364 97.079 148.278 97.6884 147.238 97.3942L60.2998 73.0515L22.3072 244.01L124.922 205.089C125.934 204.704 127.069 205.215 127.451 206.228C127.836 207.24 127.324 208.375 126.312 208.756L20.3083 248.974C20.0806 249.058 19.846 249.1 19.6113 249.1L19.6098 249.107ZM153.132 198.463C152.341 198.463 151.595 197.979 151.297 197.198C150.912 196.186 151.423 195.051 152.435 194.669L297.749 139.549L175.578 105.339C174.535 105.048 173.925 103.966 174.219 102.922C174.51 101.878 175.592 101.269 176.636 101.563L304.555 137.381C305.371 137.608 305.949 138.333 305.987 139.181C306.026 140.029 305.514 140.803 304.723 141.104L153.832 198.34C153.597 198.42 153.359 198.462 153.131 198.462L153.132 198.463Z" fill="white"/>
<path d="M372.672 415.833C360.774 415.833 351.097 406.155 351.097 394.257C351.097 382.359 360.774 372.682 372.672 372.682C384.57 372.682 394.248 382.359 394.248 394.257C394.248 406.155 384.57 415.833 372.672 415.833ZM372.672 376.604C362.939 376.604 355.019 384.523 355.019 394.257C355.019 403.991 362.938 411.911 372.672 411.911C382.406 411.911 390.326 403.991 390.326 394.257C390.326 384.523 382.406 376.604 372.672 376.604Z" fill="white"/>
<path d="M137.297 43.1512C125.399 43.1512 115.722 33.4735 115.722 21.5756C115.722 9.67773 125.399 0 137.297 0C149.195 0 158.873 9.67773 158.873 21.5756C158.873 33.4735 149.195 43.1512 137.297 43.1512ZM137.297 3.92202C127.564 3.92202 119.644 11.8414 119.644 21.5756C119.644 31.3098 127.563 39.2292 137.297 39.2292C147.031 39.2292 154.951 31.3098 154.951 21.5756C154.951 11.8414 147.031 3.92202 137.297 3.92202Z" fill="white"/>
<path d="M323.634 278.526C323.116 278.526 322.615 278.309 322.24 277.948C321.876 277.584 321.673 277.076 321.673 276.565C321.673 276.043 321.88 275.535 322.24 275.171C322.976 274.446 324.289 274.446 325.014 275.171C325.386 275.542 325.592 276.043 325.592 276.565C325.592 277.076 325.386 277.584 325.014 277.948C324.654 278.309 324.153 278.526 323.634 278.526Z" fill="white"/>
<path d="M294.214 278.526C293.696 278.526 293.195 278.309 292.831 277.948C292.46 277.584 292.253 277.076 292.253 276.565C292.253 276.043 292.46 275.535 292.831 275.171C293.545 274.446 294.869 274.446 295.598 275.171C295.969 275.542 296.176 276.043 296.176 276.565C296.176 277.076 295.969 277.584 295.608 277.948C295.234 278.309 294.733 278.526 294.214 278.526H294.214Z" fill="white"/>
<path d="M264.794 278.526C264.276 278.526 263.775 278.309 263.4 277.948C263.036 277.584 262.833 277.076 262.833 276.565C262.833 276.043 263.04 275.546 263.4 275.171C264.136 274.446 265.449 274.446 266.175 275.171C266.546 275.542 266.752 276.043 266.752 276.565C266.752 277.076 266.546 277.584 266.185 277.948C265.814 278.309 265.313 278.526 264.794 278.526H264.794Z" fill="white"/>
<path d="M264.794 249.107C264.283 249.107 263.775 248.889 263.4 248.529C263.036 248.164 262.833 247.656 262.833 247.145C262.833 246.623 263.04 246.126 263.4 245.751C264.136 245.026 265.449 245.026 266.175 245.751C266.546 246.122 266.752 246.623 266.752 247.145C266.752 247.656 266.546 248.164 266.175 248.529C265.814 248.889 265.306 249.107 264.794 249.107Z" fill="white"/>
<path d="M264.794 219.687C264.276 219.687 263.775 219.47 263.411 219.109C263.04 218.745 262.833 218.237 262.833 217.725C262.833 217.204 263.04 216.706 263.4 216.331C264.136 215.606 265.45 215.606 266.175 216.331C266.546 216.703 266.752 217.204 266.752 217.725C266.752 218.237 266.546 218.745 266.185 219.109C265.814 219.47 265.313 219.687 264.794 219.687Z" fill="white"/>
<path d="M0 384.449H19.6146V404.064H0V384.449Z" fill="white"/>
<path d="M29.4199 384.449H49.0345V404.064H29.4199V384.449Z" fill="white"/>
<path d="M58.8389 384.449H78.4535V404.064H58.8389V384.449Z" fill="white"/>
<path d="M88.2588 384.449H107.873V404.064H88.2588V384.449Z" fill="white"/>
</svg>
