<svg width="27" height="27" viewBox="0 0 27 27" fill="none" xmlns="http://www.w3.org/2000/svg">
<path d="M14.5632 7.27735C15.9193 7.27735 17.0185 6.17807 17.0185 4.82204C17.0185 3.46601 15.9193 2.36673 14.5632 2.36673C13.2072 2.36673 12.1079 3.46601 12.1079 4.82204C12.1079 6.17807 13.2072 7.27735 14.5632 7.27735Z" stroke="white" stroke-width="1.26562"/>
<path d="M22.6252 15.7865C23.9813 15.7865 25.0805 14.6872 25.0805 13.3312C25.0805 11.9752 23.9813 10.8759 22.6252 10.8759C21.2692 10.8759 20.1699 11.9752 20.1699 13.3312C20.1699 14.6872 21.2692 15.7865 22.6252 15.7865Z" stroke="white" stroke-width="1.26562"/>
<path d="M14.5632 23.7895C15.9193 23.7895 17.0185 22.6903 17.0185 21.3342C17.0185 19.9782 15.9193 18.8789 14.5632 18.8789C13.2072 18.8789 12.1079 19.9782 12.1079 21.3342C12.1079 22.6903 13.2072 23.7895 14.5632 23.7895Z" stroke="white" stroke-width="1.26562"/>
<path d="M6.39525 20.187C7.75129 20.187 8.85057 19.0877 8.85057 17.7316C8.85057 16.3756 7.75129 15.2763 6.39525 15.2763C5.03922 15.2763 3.93994 16.3756 3.93994 17.7316C3.93994 19.0877 5.03922 20.187 6.39525 20.187Z" stroke="white" stroke-width="1.26562"/>
<path d="M6.39525 10.5847C7.75129 10.5847 8.85057 9.48545 8.85057 8.12942C8.85057 6.77338 7.75129 5.6741 6.39525 5.6741C5.03922 5.6741 3.93994 6.77338 3.93994 8.12942C3.93994 9.48545 5.03922 10.5847 6.39525 10.5847Z" stroke="white" stroke-width="1.26562"/>
<path d="M14.559 14.3308C15.6541 14.3308 16.5418 13.4431 16.5418 12.348C16.5418 11.2529 15.6541 10.3652 14.559 10.3652C13.4639 10.3652 12.5762 11.2529 12.5762 12.348C12.5762 13.4431 13.4639 14.3308 14.559 14.3308Z" stroke="white" stroke-width="1.26562"/>
<path d="M8.50928 6.87686L12.1922 5.45514" stroke="white" stroke-width="1.26562"/>
<path d="M16.2847 6.5769L20.8747 11.6099" stroke="white" stroke-width="1.26562"/>
<path d="M21.1233 15.2718L16.314 19.6129" stroke="white" stroke-width="1.26562"/>
<path d="M7.74561 10.18L13.0401 19.4106" stroke="white" stroke-width="1.26562"/>
<path d="M8.56836 18.8749L12.1079 20.516" stroke="white" stroke-width="1.26562"/>
<path d="M7.31494 15.453L13.2338 6.8847" stroke="white" stroke-width="1.26562"/>
<path d="M8.65723 9.09152L12.8 11.4329" stroke="white" stroke-width="1.26562"/>
<path d="M16.5459 12.572L20.1698 12.8462" stroke="white" stroke-width="1.26562"/>
<path d="M14.5586 14.3351L14.5628 18.8745" stroke="white" stroke-width="1.26562"/>
</svg>
