<svg width="40" height="49" viewBox="0 0 40 49" fill="none" xmlns="http://www.w3.org/2000/svg">
<path d="M27.9269 7.6572C28.3877 7.87101 28.7249 8.17548 29.0912 8.5215C29.1571 8.58339 29.223 8.64529 29.2909 8.70906C29.4235 8.83396 29.5557 8.95914 29.6877 9.08462C29.8423 9.23119 29.9988 9.37589 30.1555 9.52018C31.8621 11.1384 33.2439 13.4512 33.3581 15.8321C33.4033 18.3617 32.2143 20.4435 30.5118 22.2401C29.6339 23.1491 28.7255 23.9484 27.6984 24.6861C27.5391 24.802 27.3799 24.9179 27.2207 25.0339C26.5211 25.5419 25.8194 26.0467 25.1126 26.5446C22.8121 28.1727 20.7374 29.9116 19.4268 32.4506C19.3737 32.5504 19.3737 32.5504 19.3196 32.6523C18.6191 34.0746 18.4639 35.6316 18.3267 37.1864C18.0601 40.1952 17.4345 43.1085 15.1267 45.258C13.5324 46.5387 11.8391 47.2122 9.86942 47.658C9.69506 47.6984 9.69506 47.6984 9.51718 47.7397C8.29312 48.0038 7.06895 48.0167 5.82202 48.012C5.65453 48.0118 5.48705 48.0117 5.31957 48.0115C4.88255 48.0111 4.44554 48.01 4.00853 48.0087C3.56107 48.0075 3.11361 48.007 2.66615 48.0064C1.79098 48.0052 0.915816 48.0033 0.0406504 48.0009C0.0272475 47.5271 0.0192089 47.0533 0.0120784 46.5794C0.00824793 46.4463 0.00441749 46.3132 0.000470985 46.1761C-0.0124168 45.0323 0.23748 44.266 0.960312 43.3843C1.8272 42.6717 2.64081 42.6793 3.72287 42.686C3.88117 42.6852 4.03948 42.6841 4.19778 42.6828C4.69783 42.6791 5.19785 42.6791 5.69791 42.6793C10.0107 42.799 10.0107 42.799 13.7146 40.8521C14.5937 39.9196 15.0101 38.6057 15.1146 37.3538C15.1316 37.1704 15.1487 36.987 15.1659 36.8036C15.1789 36.661 15.1789 36.661 15.1922 36.5156C15.5723 32.4331 16.6042 28.7046 19.8518 25.9442C20.1189 25.7234 20.3881 25.5055 20.6589 25.2892C20.8491 25.1369 21.038 24.983 21.2268 24.829C22.0254 24.1803 22.8389 23.5574 23.6697 22.9504C26.1543 21.1328 28.5958 19.1728 29.7555 16.2288C29.7922 16.1397 29.8289 16.0505 29.8667 15.9587C30.5311 14.0212 30.1567 11.793 29.2801 9.99474C28.87 9.18966 28.4116 8.4193 27.9269 7.6572Z" fill="#0A5C36"/>
<path d="M24.6122 27.8864C24.8036 28.269 24.5815 28.6491 24.456 29.0373C24.4256 29.1338 24.3951 29.2304 24.3638 29.3298C24.2969 29.5417 24.2297 29.7534 24.1622 29.9651C23.978 30.5425 23.7966 31.1208 23.6149 31.699C23.576 31.8224 23.5372 31.9458 23.4972 32.0729C23.0104 33.6218 22.5401 35.1756 22.0693 36.7294C21.9841 37.0104 21.8988 37.2914 21.8136 37.5723C21.7339 37.8351 21.6543 38.0979 21.5747 38.3607C21.5384 38.4803 21.5022 38.5998 21.4648 38.723C21.3706 39.0345 21.277 39.3462 21.1836 39.658C21.1594 39.7379 21.1351 39.8178 21.1102 39.9001C20.8623 40.7347 20.8761 41.3139 21.2564 42.0853C21.5296 42.4385 21.85 42.6109 22.2905 42.6722C22.4574 42.6721 22.4574 42.6721 22.6276 42.672C22.8201 42.6732 22.8201 42.6732 23.0164 42.6744C23.226 42.673 23.226 42.673 23.4398 42.6717C23.667 42.6724 23.8941 42.673 24.1213 42.6737C24.365 42.6741 24.6086 42.6737 24.8523 42.673C25.361 42.6717 25.8697 42.673 26.3784 42.6749C27.6421 42.679 28.9058 42.6797 30.1695 42.6794C31.1514 42.6792 32.1334 42.6801 33.1153 42.684C33.6204 42.6859 34.1254 42.6857 34.6305 42.6839C35.0196 42.6831 35.4086 42.6852 35.7976 42.6869C35.9367 42.6858 36.0757 42.6846 36.2189 42.6835C37.1315 42.6912 37.7539 42.8073 38.4648 43.4175C38.5253 43.4898 38.5859 43.5622 38.6482 43.6367C38.7103 43.7082 38.7723 43.7796 38.8362 43.8532C39.7579 45.2229 39.3554 46.0966 39.3554 48.0011C30.3038 48.0011 21.2522 48.0011 11.9263 48.0011C12.1943 47.733 12.4082 47.6636 12.762 47.5296C15.1873 46.5328 16.9314 44.7995 18.0008 42.41C18.3963 41.4415 18.6443 40.4767 18.7978 39.4438C18.8266 39.2596 18.8266 39.2596 18.8559 39.0717C18.9789 38.2544 19.0623 37.4389 19.1264 36.6151C19.3735 33.5862 20.7375 31.1444 23.0122 29.1436C23.5335 28.7089 24.0706 28.2952 24.6122 27.8864Z" fill="#0A5C36"/>
<path d="M20.6123 0.000152588C20.6444 3.15238 20.6685 6.30459 20.6834 9.45695C20.6904 10.9207 20.7001 12.3844 20.7158 13.8481C20.7294 15.1241 20.7383 16.4 20.7413 17.6761C20.7431 18.3516 20.7473 19.0269 20.7573 19.7023C20.7666 20.3386 20.7695 20.9747 20.7674 21.6111C20.7678 21.8441 20.7705 22.0771 20.7758 22.3101C20.8156 24.1583 20.8156 24.1583 20.3133 24.755C19.9864 25.081 19.6229 25.3418 19.2408 25.6007C19.0795 25.7342 18.9194 25.8694 18.7623 26.0078C18.6911 26.07 18.6199 26.1322 18.5466 26.1962C17.7544 26.9322 17.1357 27.7462 16.5586 28.6552C16.5009 28.7409 16.4431 28.8267 16.3836 28.915C16.3459 28.915 16.3082 28.915 16.2694 28.915C16.2694 24.8795 16.2694 20.844 16.2694 16.6862C15.1219 17.4512 14.2399 18.1949 13.914 19.6028C13.8158 20.2256 13.8138 20.8571 13.7979 21.4863C13.7935 21.6293 13.789 21.7724 13.7845 21.9198C13.7738 22.2705 13.764 22.6213 13.755 22.972C13.6432 23.0067 13.5314 23.0413 13.4162 23.077C13.2648 23.1253 13.1135 23.1736 12.9621 23.222C12.889 23.2445 12.8159 23.267 12.7405 23.2901C12.2977 23.4333 11.9022 23.6109 11.4967 23.8405C11.3599 23.9176 11.3599 23.9176 11.2204 23.9963C11.1517 24.0354 11.0829 24.0746 11.0121 24.1149C11.0007 23.4076 10.9925 22.7003 10.987 21.9929C10.9847 21.7529 10.9816 21.5128 10.9776 21.2727C10.936 18.6984 10.936 18.6984 11.4693 17.6005C11.5272 17.4801 11.5851 17.3598 11.6447 17.2358C12.6346 15.699 13.9977 14.6954 15.4666 13.652C15.543 13.5973 15.6193 13.5425 15.6979 13.4861C15.8165 13.4195 15.8165 13.4195 15.9375 13.3514C16.1879 13.1535 16.1879 13.1535 16.2113 12.8068C16.2109 12.6692 16.2106 12.5316 16.2102 12.3899C16.2106 12.3138 16.2111 12.2378 16.2116 12.1594C16.2122 11.9942 16.2119 11.829 16.2106 11.6639C16.2086 11.4013 16.2095 11.1389 16.2111 10.8764C16.2145 10.2236 16.213 9.57081 16.2116 8.91802C16.2107 8.3675 16.2116 7.81705 16.215 7.26654C16.2158 7.00982 16.2139 6.75321 16.2119 6.4965C16.2124 4.67103 16.829 3.43951 18.098 2.14305C18.4652 1.7908 18.8442 1.45276 19.2301 1.12116C19.5898 0.810454 19.9414 0.490751 20.294 0.172031C20.498 0.000152588 20.498 0.000152588 20.6123 0.000152588Z" fill="#0A5C36"/>
<path d="M29.6413 24.4576C29.6956 24.5952 29.7499 24.7329 29.8059 24.8747C30.3683 26.2937 30.9579 27.6992 31.5628 29.1005C31.7451 29.524 31.9271 29.9475 32.1092 30.3711C32.1534 30.4737 32.1975 30.5763 32.2429 30.6819C32.5911 31.4915 32.9352 32.3027 33.2771 33.1149C33.7138 34.151 34.1579 35.1836 34.6057 36.215C34.6678 36.358 34.7298 36.501 34.7919 36.644C34.8226 36.7147 34.8533 36.7855 34.8849 36.8584C35.0418 37.2201 35.1988 37.5818 35.3557 37.9436C35.3884 38.019 35.4212 38.0944 35.4549 38.1721C35.651 38.6243 35.8468 39.0768 36.0419 39.5295C36.1327 39.7398 36.2239 39.9499 36.3151 40.1601C36.3693 40.2861 36.4235 40.412 36.4794 40.5418C36.5274 40.6529 36.5754 40.7639 36.6249 40.8783C36.7272 41.1436 36.7272 41.1436 36.7272 41.3722C35.03 41.3722 33.3328 41.3722 31.5842 41.3722C29.1952 35.7176 29.1952 35.7176 28.5014 34.0538C28.1725 33.2664 27.8394 32.481 27.502 31.6972C27.2983 31.2235 27.0956 30.7495 26.8928 30.2754C26.7923 30.041 26.6913 29.8068 26.5898 29.5728C26.4477 29.2451 26.3073 28.9169 26.1671 28.5885C26.1238 28.4896 26.0804 28.3907 26.0357 28.2888C25.997 28.1972 25.9582 28.1056 25.9183 28.0111C25.884 27.9315 25.8496 27.8518 25.8142 27.7697C25.7437 27.498 25.7733 27.3476 25.8698 27.0862C26.0307 26.9229 26.0307 26.9229 26.2368 26.7737C26.3125 26.7179 26.3883 26.6622 26.4664 26.6047C26.5476 26.5467 26.6289 26.4888 26.7127 26.429C26.8364 26.3387 26.8364 26.3387 26.9626 26.2465C27.2071 26.0682 27.4527 25.8914 27.6984 25.7147C27.8268 25.6213 27.9551 25.5277 28.0832 25.4339C28.2885 25.284 28.4941 25.1345 28.7002 24.9857C28.8706 24.8621 29.0386 24.7349 29.2038 24.6045C29.4127 24.4576 29.4127 24.4576 29.6413 24.4576Z" fill="#0A5C36"/>
<path d="M21.6409 6.05737C22.0733 6.26536 22.4531 6.52673 22.8409 6.80739C22.9109 6.85772 22.9809 6.90805 23.0529 6.9599C26.5798 9.50543 26.5798 9.50543 27.0763 11.8029C27.2462 12.8541 27.1928 13.9481 27.2005 15.0104C27.203 15.3227 27.2086 15.6348 27.2169 15.947C27.2289 16.4004 27.2324 16.8536 27.2352 17.3072C27.2398 17.4455 27.2444 17.5839 27.2491 17.7265C27.2453 18.4935 27.1497 18.9194 26.6333 19.5021C26.1969 19.9301 25.7374 20.3273 25.2481 20.6934C25.1783 20.7472 25.1086 20.8011 25.0367 20.8566C24.5417 21.2359 24.5417 21.2359 24.2695 21.372C24.2691 21.2659 24.2687 21.1599 24.2683 21.0507C24.2639 20.047 24.2574 19.0433 24.2485 18.0396C24.244 17.5237 24.2403 17.0078 24.2385 16.4919C24.2368 15.9932 24.2328 15.4945 24.2274 14.9958C24.2257 14.8064 24.2248 14.617 24.2247 14.4276C24.2233 13.0291 24.1296 11.802 23.1419 10.7257C22.8991 10.5014 22.8991 10.5014 22.5819 10.3363C22.2051 10.121 21.9302 9.92541 21.6409 9.6003C21.4858 8.983 21.5206 8.40216 21.5623 7.77169C21.5686 7.60519 21.5744 7.43867 21.5795 7.27213C21.5933 6.86673 21.6149 6.4622 21.6409 6.05737Z" fill="#0A5C36"/>
<path d="M13.7551 24.4576C13.7561 24.6822 13.7561 24.6822 13.7571 24.9113C13.7637 26.3238 13.772 27.7363 13.782 29.1488C13.7871 29.875 13.7916 30.6011 13.7947 31.3273C13.7977 32.0283 13.8023 32.7293 13.808 33.4303C13.8099 33.6975 13.8112 33.9647 13.812 34.2319C13.8131 34.6067 13.8163 34.9814 13.82 35.3562C13.8197 35.5212 13.8197 35.5212 13.8195 35.6895C13.8289 36.369 13.9447 36.8618 14.2122 37.4864C14.4396 38.2266 14.0487 38.97 13.706 39.6293C13.2906 40.3008 13.2906 40.3008 12.9082 40.4539C12.6122 40.4579 12.6122 40.4579 12.3515 40.2963C12.2678 40.2129 12.1841 40.1295 12.0979 40.0436C11.9724 39.9247 11.9724 39.9247 11.8443 39.8034C10.8871 38.4298 10.9273 37.0217 10.9363 35.4136C10.9359 35.1699 10.9353 34.9262 10.9346 34.6825C10.9338 34.1743 10.935 33.6661 10.9377 33.1578C10.9409 32.5088 10.939 31.8599 10.9356 31.2108C10.9336 30.7085 10.9342 30.2062 10.9357 29.7039C10.9361 29.4646 10.9356 29.2254 10.9343 28.9861C10.9231 26.4198 10.9231 26.4198 11.806 25.4774C12.3309 24.9718 13.0038 24.4576 13.7551 24.4576Z" fill="#0A5C36"/>
<path d="M27.8125 25.8292C27.8515 25.936 27.8905 26.0428 27.9307 26.1529C28.3526 27.2988 28.8105 28.4267 29.2873 29.5508C29.4053 29.8289 29.5227 30.1072 29.64 30.3856C30.0418 31.337 30.448 32.2862 30.8674 33.2301C31.0968 33.7493 31.2947 34.2752 31.4836 34.8102C31.7238 35.471 32.0341 36.1004 32.3357 36.7349C32.7839 37.6797 33.2168 38.6309 33.6412 39.5866C33.6976 39.7124 33.754 39.8381 33.812 39.9677C33.8641 40.0856 33.9162 40.2035 33.9698 40.3251C34.0167 40.4306 34.0635 40.5361 34.1118 40.6449C34.2127 40.9152 34.2127 40.9152 34.2127 41.2581C33.3452 41.2581 32.4778 41.2581 31.5841 41.2581C31.0102 40.0464 30.4929 38.8154 29.9806 37.5767C29.7287 36.9678 29.4758 36.3593 29.2228 35.7509C29.1717 35.6279 29.1206 35.5049 29.0679 35.3781C28.4579 33.9123 27.8364 32.4515 27.2131 30.9912C27.141 30.822 27.069 30.6527 26.9972 30.4833C26.8038 30.0272 26.6073 29.5726 26.4074 29.1193C26.3216 28.9222 26.2358 28.7251 26.15 28.5279C26.1089 28.4362 26.0677 28.3445 26.0253 28.25C25.9883 28.1642 25.9512 28.0785 25.9131 27.9901C25.8798 27.9148 25.8465 27.8394 25.8123 27.7618C25.7426 27.4945 25.7753 27.3437 25.8697 27.0864C26.0364 26.9191 26.0364 26.9191 26.2478 26.7667C26.3237 26.7115 26.3997 26.6562 26.4779 26.5993C26.5577 26.5432 26.6375 26.4871 26.7197 26.4292C26.799 26.3713 26.8783 26.3134 26.9601 26.2538C27.5511 25.8292 27.5511 25.8292 27.8125 25.8292Z" fill="#0A5C36"/>
<path d="M16.2694 13.1432C16.506 16.1023 16.506 16.1023 16.1346 16.8392C15.8535 17.1663 15.5263 17.3768 15.1591 17.5973C14.4852 18.0132 14.2082 18.6299 13.9715 19.3634C13.8077 20.0593 13.8159 20.7748 13.7979 21.4862C13.7935 21.6293 13.789 21.7723 13.7845 21.9197C13.7738 22.2704 13.764 22.6212 13.755 22.972C13.6432 23.0066 13.5314 23.0412 13.4162 23.0769C13.2648 23.1252 13.1135 23.1735 12.9621 23.222C12.889 23.2444 12.8159 23.2669 12.7405 23.29C12.2977 23.4332 11.9022 23.6108 11.4967 23.8404C11.3599 23.9175 11.3599 23.9175 11.2204 23.9962C11.1173 24.0549 11.1173 24.0549 11.0121 24.1148C11.0007 23.4075 10.9925 22.7003 10.987 21.9929C10.9847 21.7528 10.9816 21.5127 10.9776 21.2726C10.936 18.6983 10.936 18.6983 11.4693 17.6004C11.5272 17.4801 11.5851 17.3597 11.6447 17.2357C12.6346 15.6989 13.9977 14.6953 15.4666 13.6519C15.6294 13.5352 15.7901 13.4153 15.9491 13.2934C16.1551 13.1432 16.1551 13.1432 16.2694 13.1432Z" fill="#0A5C36"/>
<path d="M8.64381 33.9243C8.84069 34.0578 8.84069 34.0578 8.95498 34.4007C8.81614 34.7592 8.81614 34.7592 8.61926 35.165C8.55459 35.2998 8.48991 35.4346 8.42327 35.5735C8.34703 35.7284 8.34703 35.7284 8.26925 35.8864C8.20561 35.8699 8.14197 35.8534 8.07639 35.8364C6.98434 35.5661 6.98434 35.5661 5.93349 35.8721C5.58938 36.1575 5.53828 36.2337 5.49063 36.6721C5.49431 37.0393 5.49431 37.0393 5.74063 37.2936C6.2727 37.7161 6.81269 37.6485 7.46924 37.6007C7.85703 37.525 8.23653 37.4342 8.61837 37.3329C8.95498 37.2579 8.95498 37.2579 9.52642 37.2579C9.52642 37.899 9.52642 38.5402 9.52642 39.2008C9.30544 39.2479 9.08445 39.2951 8.85677 39.3436C6.80643 39.7936 4.83468 40.2892 3.01201 41.3722C2.99966 41.0388 2.9906 40.7058 2.98343 40.3722C2.9796 40.2779 2.97577 40.1836 2.97183 40.0865C2.9605 39.384 2.9605 39.384 3.22272 39.0329C3.488 38.8445 3.75616 38.6731 4.0406 38.515C3.98071 38.4364 3.98071 38.4364 3.91961 38.3561C3.86761 38.286 3.8156 38.2159 3.76202 38.1436C3.71031 38.0747 3.6586 38.0057 3.60532 37.9347C3.232 37.3325 3.29183 36.5685 3.35487 35.8864C3.54317 35.2611 3.89461 34.8299 4.38346 34.4007C4.47068 34.3205 4.55789 34.2404 4.64775 34.1578C5.80455 33.3507 7.37567 33.3718 8.64381 33.9243Z" fill="#0A5C36"/>
<path d="M20.6125 0.000152588C20.6152 1.30377 20.6172 2.60738 20.6184 3.911C20.619 4.51654 20.6198 5.12209 20.6211 5.72764C20.6224 6.3138 20.6231 6.89996 20.6234 7.48613C20.6236 7.70794 20.624 7.92976 20.6246 8.15157C20.6285 9.59097 20.5892 11.0209 20.4982 12.4575C20.4605 12.4575 20.4228 12.4575 20.3839 12.4575C20.3842 12.3188 20.3844 12.18 20.3847 12.037C20.387 10.7287 20.3887 9.42038 20.3899 8.11209C20.3905 7.43949 20.3913 6.7669 20.3926 6.0943C20.3938 5.44516 20.3945 4.79602 20.3948 4.14688C20.395 3.89927 20.3954 3.65166 20.396 3.40406C20.3968 3.05714 20.397 2.71023 20.3969 2.36331C20.3975 2.20992 20.3975 2.20992 20.3982 2.05342C20.3973 1.54616 20.3724 1.07098 20.2696 0.571593C19.8363 0.987858 19.4054 1.40643 18.9764 1.8272C18.8305 1.96969 18.6839 2.11156 18.5367 2.25276C17.144 3.5878 17.144 3.5878 16.6481 5.41455C16.6193 5.92093 16.6193 5.92093 16.5547 6.13013C16.472 6.52527 16.4842 6.91817 16.487 7.31994C16.4871 7.40808 16.4873 7.49622 16.4875 7.58703C16.4881 7.86766 16.4895 8.14827 16.491 8.42889C16.4916 8.61952 16.4921 8.81015 16.4926 9.00078C16.4938 9.46731 16.4958 9.93383 16.4981 10.4004C16.4227 10.4004 16.3473 10.4004 16.2696 10.4004C16.2579 9.67468 16.2499 8.94903 16.2445 8.22328C16.2422 7.97688 16.2391 7.73048 16.2351 7.48409C16.2295 7.12801 16.2269 6.77202 16.2249 6.41591C16.2226 6.3074 16.2202 6.19889 16.2178 6.0871C16.2172 4.47658 16.9984 3.2666 18.0982 2.14305C18.4655 1.7908 18.8444 1.45276 19.2303 1.12116C19.59 0.810454 19.9416 0.490751 20.2942 0.172031C20.4982 0.000152588 20.4982 0.000152588 20.6125 0.000152588Z" fill="#0A5C36"/>
<path d="M30.4414 26.7436C30.7381 27.1037 30.9103 27.4626 31.0856 27.894C31.1418 28.0311 31.198 28.1683 31.2558 28.3095C31.3154 28.4566 31.3748 28.6037 31.4343 28.7507C31.5259 28.9756 31.6176 29.2003 31.7094 29.425C31.7706 29.5748 31.8317 29.7246 31.8927 29.8745C32.075 30.3213 32.2617 30.7659 32.4531 31.2088C32.4963 31.3091 32.5395 31.4093 32.584 31.5126C32.6635 31.6962 32.7437 31.8795 32.8246 32.0624C32.913 32.2677 32.9926 32.4768 33.07 32.6865C33.0323 32.762 32.9946 32.8374 32.9557 32.9151C31.6986 30.4785 31.6986 30.4785 31.6986 29.8293C31.6231 29.8293 31.5477 29.8293 31.47 29.8293C31.4396 29.7508 31.4093 29.6723 31.378 29.5914C31.3377 29.4884 31.2973 29.3854 31.2557 29.2793C31.2159 29.1772 31.1762 29.0751 31.1352 28.9699C31.0142 28.6662 31.0142 28.6662 30.7843 28.3436C30.77 27.9793 30.77 27.9793 30.7843 27.6579C30.7088 27.6579 30.6334 27.6579 30.5557 27.6579C30.518 27.3561 30.4803 27.0544 30.4414 26.7436Z" fill="#0A5C36"/>
</svg>
